<?xml version="1.0" standalone="no"?>
<!DOCTYPE svg PUBLIC "-//W3C//DTD SVG 20010904//EN"
 "http://www.w3.org/TR/2001/REC-SVG-20010904/DTD/svg10.dtd">
<svg version="1.0" xmlns="http://www.w3.org/2000/svg"
 width="264.000000pt" height="264.000000pt" viewBox="0 0 264.000000 264.000000"
 preserveAspectRatio="xMidYMid meet">
<metadata>
Created by potrace 1.11, written by Peter Selinger 2001-2013
</metadata>
<g transform="translate(0.000000,264.000000) scale(0.100000,-0.100000)"
fill="#000000" stroke="none">
<path d="M430 2083 c-80 -69 -161 -139 -180 -157 -19 -17 -69 -60 -110 -96
-41 -36 -88 -76 -103 -91 l-28 -25 636 -630 c350 -346 638 -631 641 -633 2 -2
41 32 86 76 106 102 253 242 298 283 19 18 103 97 185 175 83 79 166 157 185
175 19 18 102 96 184 174 82 77 163 155 181 171 142 134 206 198 203 204 -2 4
-131 117 -287 251 l-284 244 -731 2 -731 3 -145 -126z m125 -40 c-24 -76 -57
-184 -75 -240 l-31 -103 -199 0 c-154 0 -200 3 -199 13 0 6 44 49 97 95 91 77
124 105 197 170 17 15 64 56 105 92 41 36 88 77 104 92 17 15 33 25 37 22 4
-2 -12 -66 -36 -141z m758 138 c4 -1 -14 -27 -40 -60 -44 -53 -285 -363 -317
-407 -12 -16 -16 -13 -48 37 -49 75 -242 389 -256 415 l-11 22 332 -3 c183 -2
336 -4 340 -4z m702 0 c44 -5 37 -20 -100 -218 -76 -109 -149 -213 -162 -231
l-24 -32 -43 52 c-23 29 -77 98 -118 153 -42 55 -106 138 -141 185 -36 46 -64
87 -62 90 2 4 613 5 650 1z m-1255 -236 c68 -110 130 -210 138 -222 l14 -23
-220 0 -220 0 20 63 c64 205 90 289 105 344 13 48 20 60 29 50 6 -6 67 -102
134 -212z m755 -7 c94 -122 172 -225 173 -230 2 -4 -156 -8 -352 -8 -196 0
-356 2 -356 5 0 5 41 58 165 216 33 42 89 113 124 157 35 45 66 82 70 82 3 0
83 -100 176 -222z m618 -30 l65 -208 -220 0 -219 0 71 103 c40 56 106 152 148
214 43 61 80 108 84 105 3 -4 36 -100 71 -214z m39 150 c40 -35 84 -72 98 -84
14 -12 48 -41 76 -65 27 -24 79 -69 114 -99 35 -30 78 -67 95 -82 l30 -27
-182 -1 -182 0 -36 118 c-30 96 -61 194 -90 290 -7 20 1 15 77 -50z m-1714
-393 c67 -97 153 -227 150 -229 -2 -1 -38 -30 -80 -64 l-77 -62 -181 178 c-99
97 -180 180 -180 183 0 10 360 5 368 -6z m441 6 c0 -4 -52 -46 -116 -96 -64
-49 -122 -96 -129 -102 -7 -7 -16 -13 -21 -13 -7 0 -79 101 -136 191 l-17 25
210 0 c116 0 210 -2 209 -5z m381 -2 c3 -4 4 -130 4 -281 -1 -150 -2 -399 -3
-552 -1 -154 -3 -277 -5 -275 -2 2 -36 114 -75 249 -86 295 -160 549 -212 726
-22 71 -39 132 -39 135 0 8 324 6 330 -2z m402 -34 c-8 -22 -34 -96 -57 -165
-45 -130 -150 -431 -254 -729 -34 -96 -63 -176 -65 -178 -3 -3 0 1068 3 1103
1 7 62 11 194 10 l193 0 -14 -41z m498 37 c0 -3 -39 -57 -86 -119 -59 -78 -90
-111 -99 -106 -7 5 -50 42 -95 83 -125 113 -150 137 -150 142 0 3 97 5 215 5
118 0 215 -3 215 -5z m360 -2 c0 -5 -93 -94 -315 -302 l-70 -66 -58 51 c-33
28 -61 56 -64 63 -4 10 116 179 174 245 12 14 38 16 173 16 88 -1 160 -4 160
-7z m-1567 -160 c19 -63 47 -158 62 -210 176 -610 214 -744 211 -747 -2 -2
-13 11 -24 29 -11 18 -51 78 -89 133 -38 55 -127 186 -198 290 -70 105 -165
244 -211 310 l-82 120 142 112 c117 94 142 110 148 95 4 -9 22 -69 41 -132z
m844 65 c48 -44 107 -98 131 -120 l42 -40 -321 -425 c-176 -234 -324 -429
-329 -434 -14 -14 14 68 250 744 39 113 83 240 98 282 15 43 30 77 34 75 4 -1
46 -38 95 -82z m-1117 -265 c35 -52 87 -129 115 -170 29 -41 91 -133 140 -205
49 -71 127 -186 173 -255 47 -69 83 -123 80 -120 -4 3 -171 169 -373 369 -301
299 -364 366 -353 377 37 36 144 112 149 106 3 -4 34 -50 69 -102z m1379 28
c28 -26 51 -50 51 -54 0 -4 -22 -28 -48 -53 -142 -134 -351 -332 -382 -361
-19 -18 -75 -71 -125 -118 -139 -132 -190 -178 -178 -162 5 8 70 94 143 190
73 96 207 275 299 396 99 133 171 219 177 215 7 -3 35 -27 63 -53z"/>
</g>
</svg>
